<svg width="34" height="63" viewBox="0 0 34 63" fill="none" xmlns="http://www.w3.org/2000/svg">
<path d="M17.184 61.8998C18.7302 60.3972 21.0153 58.2398 23.7882 56.653C26.709 54.9845 29.8701 53.7774 33.1596 53.0743V14.892C33.1886 13.8365 33.2453 11.142 31.1997 9.43757C29.8088 8.27613 26.4291 8.42131 23.6169 7.30633C20.8585 6.21748 19.08 4.74535 17.0838 2C15.0832 4.74535 13.3091 6.21748 10.5507 7.30633C7.73859 8.41405 4.3588 8.27758 2.96797 9.43757C0.922387 11.142 0.979008 13.8365 1.00804 14.892V53.0743C4.29801 53.7773 7.45959 54.9844 10.3809 56.653C13.1538 58.2398 15.4375 60.3972 16.9836 61.8998L17.0882 62L17.184 61.8998Z" fill="white"/>
<path d="M16.8431 36.992C21.4628 36.992 25.2078 31.6428 25.2078 25.0443C25.2078 18.4458 21.4628 13.0967 16.8431 13.0967C12.2235 13.0967 8.47852 18.4458 8.47852 25.0443C8.47852 31.6428 12.2235 36.992 16.8431 36.992Z" stroke="#640C24" stroke-width="0.5" stroke-miterlimit="10"/>
<path d="M16.6988 36.992C23.2712 36.992 28.5992 31.6428 28.5992 25.0443C28.5992 18.4458 23.2712 13.0967 16.6988 13.0967C10.1263 13.0967 4.79834 18.4458 4.79834 25.0443C4.79834 31.6428 10.1263 36.992 16.6988 36.992Z" stroke="#640C24" stroke-width="0.5" stroke-miterlimit="10"/>
<path d="M16.8433 36.992C19.1342 36.992 20.9913 31.6428 20.9913 25.0443C20.9913 18.4458 19.1342 13.0967 16.8433 13.0967C14.5524 13.0967 12.6953 18.4458 12.6953 25.0443C12.6953 31.6428 14.5524 36.992 16.8433 36.992Z" stroke="#640C24" stroke-width="0.5" stroke-miterlimit="10"/>
<path d="M4.896 25.0443H8.479H12.6971H16.8436H20.9916H25.2083H28.7913" stroke="#640C24" stroke-width="0.5" stroke-miterlimit="10"/>
<path d="M16.8433 36.9918V13.0951" stroke="#640C24" stroke-width="0.5" stroke-miterlimit="10"/>
<path d="M5.99268 20.038H9.2467H13.0772H16.8432H20.6093H24.4412H27.6952" stroke="#640C24" stroke-width="0.5" stroke-miterlimit="10"/>
<path d="M8.77441 16.2318H11.1945H14.0424H16.843H19.6436H22.4914H24.9115" stroke="#640C24" stroke-width="0.5" stroke-miterlimit="10"/>
<path d="M5.97119 30.0046H9.23237H13.07H16.8432H20.6179H24.4555H27.7152" stroke="#640C24" stroke-width="0.5" stroke-miterlimit="10"/>
<path d="M8.72461 33.8108H11.1605H14.0255H16.8432H19.6596H22.526H24.9618" stroke="#640C24" stroke-width="0.5" stroke-miterlimit="10"/>
<path d="M3.32959 38.2806H3.77586L3.56989 39.1031L3.32959 38.2806Z" fill="#640C24"/>
<path d="M4.20607 14.959H2.83008V36.2754H4.20607V14.959Z" fill="#640C24"/>
<path d="M2.83008 36.5099H4.20607V36.5757L3.83561 38.0461H3.25918L2.83008 36.5757V36.5099Z" fill="#640C24"/>
<path d="M4.20617 13.121V14.7244H2.83018V13.121C2.83018 13.121 2.68715 12.0883 3.51817 12.0883C4.3492 12.0883 4.20617 13.121 4.20617 13.121Z" fill="#640C24"/>
<path d="M20.88 29.2882L20.9661 31.8884C20.9657 32.4326 20.829 32.9681 20.5684 33.446L18.7247 36.823L18.6575 36.9475C18.4243 37.2407 17.6934 37.4538 16.8324 37.4538C16.0257 37.4538 15.3348 37.2679 15.0573 37.0047L14.9272 36.7658L13.1164 33.4517C12.8544 32.9723 12.7172 32.4347 12.7173 31.8884L12.8138 29.1581" fill="white"/>
<path d="M20.88 29.2882L20.9661 31.8884C20.9657 32.4326 20.829 32.9681 20.5684 33.446L18.7247 36.823L18.6575 36.9475C18.4243 37.2407 17.6934 37.4538 16.8324 37.4538C16.0257 37.4538 15.3348 37.2679 15.0573 37.0047L14.9272 36.7658L13.1164 33.4517C12.8544 32.9723 12.7172 32.4347 12.7173 31.8884L12.8138 29.1581" stroke="#640C24" stroke-width="0.83955" stroke-miterlimit="10"/>
<path d="M12.7166 31.7596C12.8384 31.6854 12.9774 31.644 13.12 31.6395C14.0468 31.6152 15.9993 34.5173 18.0518 34.3671C19.7596 34.2427 19.8369 32.1916 20.9597 31.3477L20.9397 29.4639C20.9397 29.4639 20.143 30.9615 16.8374 30.8213C13.5319 30.6812 12.6895 29.401 12.6895 29.401L12.7166 31.7596Z" fill="#F99C2F"/>
<path d="M13.2515 31.6524V30.0389" stroke="#640C24" stroke-width="0.5" stroke-miterlimit="10"/>
<path d="M13.9023 32.003V30.361" stroke="#640C24" stroke-width="0.5" stroke-miterlimit="10"/>
<path d="M14.5537 32.5305V30.5624" stroke="#640C24" stroke-width="0.5" stroke-miterlimit="10"/>
<path d="M15.2041 33.0785V30.6956" stroke="#640C24" stroke-width="0.5" stroke-miterlimit="10"/>
<path d="M15.8545 33.5747V30.777" stroke="#640C24" stroke-width="0.5" stroke-miterlimit="10"/>
<path d="M16.5059 33.9783V30.8158" stroke="#640C24" stroke-width="0.5" stroke-miterlimit="10"/>
<path d="M17.1567 34.2527V30.817" stroke="#640C24" stroke-width="0.5" stroke-miterlimit="10"/>
<path d="M17.8071 34.3715V30.7784" stroke="#640C24" stroke-width="0.5" stroke-miterlimit="10"/>
<path d="M12.7173 31.8209C12.8408 31.7484 12.9817 31.708 13.1263 31.7035C14.066 31.6798 16.0456 34.5139 18.1267 34.3673C19.7904 34.0856 19.9204 32.015 21.0589 31.1909" stroke="#640C24" stroke-width="0.5" stroke-miterlimit="10"/>
<path d="M18.458 34.2942V30.6997" stroke="#640C24" stroke-width="0.5" stroke-miterlimit="10"/>
<path d="M19.1094 33.9308V30.5681" stroke="#640C24" stroke-width="0.5" stroke-miterlimit="10"/>
<path d="M19.7588 33.08V30.371" stroke="#640C24" stroke-width="0.5" stroke-miterlimit="10"/>
<path d="M20.4106 31.9528V30.0547" stroke="#640C24" stroke-width="0.5" stroke-miterlimit="10"/>
<path d="M16.8434 30.8213C19.1201 30.8213 20.9657 30.1342 20.9657 29.2866C20.9657 28.439 19.1201 27.7518 16.8434 27.7518C14.5668 27.7518 12.7212 28.439 12.7212 29.2866C12.7212 30.1342 14.5668 30.8213 16.8434 30.8213Z" fill="white" stroke="#640C24" stroke-width="0.5" stroke-miterlimit="10"/>
<path d="M16.8047 61.8455H16.8533Z" fill="#FF9F3B"/>
<path d="M16.8047 61.8455H16.8533" stroke="#640C24" stroke-width="0.83955" stroke-miterlimit="10"/>
<path d="M9.24668 55.256C9.25813 55.256 16.1953 60.5482 16.746 61.1046C17.3953 61.1046 21.1929 57.0997 24.0407 55.5063C27.0215 53.8428 32.2895 52.1021 32.2895 52.1021L29.3802 49.0783C29.3802 49.0783 28.5692 49.2056 27.4077 49.5074C26.0108 49.8812 24.6488 50.3751 23.337 50.9835C20.3333 52.3881 18.079 54.3119 16.9834 55.3203L16.8404 55.4462L16.6973 55.3203C15.6017 54.3119 13.3418 52.3881 10.3452 50.9835C9.03514 50.3752 7.6751 49.8808 6.28016 49.506C5.11872 49.2056 4.30629 49.0769 4.30629 49.0769L1.39697 52.1006L9.24668 55.256Z" fill="#F99C2F" stroke="#640C24" stroke-width="0.5" stroke-miterlimit="10"/>
<path d="M5.47949 50.5343C9.30754 51.4831 12.8316 53.3894 15.7207 56.074" stroke="#640C24" stroke-width="0.5" stroke-miterlimit="10"/>
<path d="M4.63916 51.4941C8.84841 52.51 12.6642 54.7455 15.6084 57.9207" stroke="#640C24" stroke-width="0.5" stroke-miterlimit="10"/>
<path d="M28.2071 50.5343C24.3793 51.4827 20.8556 53.389 17.9673 56.074" stroke="#640C24" stroke-width="0.5" stroke-miterlimit="10"/>
<path d="M29.047 51.4941C24.8379 52.5095 21.0224 54.7452 18.0791 57.9207" stroke="#640C24" stroke-width="0.5" stroke-miterlimit="10"/>
<path d="M16.8433 61.3906V55.4404" stroke="#640C24" stroke-width="0.83955" stroke-miterlimit="10"/>
<path d="M10.4642 22.2036C10.8702 22.2036 11.1994 21.715 11.1994 21.1122C11.1994 20.5095 10.8702 20.0209 10.4642 20.0209C10.0582 20.0209 9.729 20.5095 9.729 21.1122C9.729 21.715 10.0582 22.2036 10.4642 22.2036Z" fill="#640C24"/>
<path d="M7.1626 26.9037C7.1626 26.9037 7.6246 25.1001 8.63156 24.3019C9.63852 23.5038 11.3177 22.7915 12.1159 22.2036C12.914 21.6157 14.1298 20.0581 14.1298 20.0581C14.1298 20.0581 13.0899 21.9276 12.4935 22.4496C11.8226 23.0375 11.2348 23.2892 11.0245 23.8342C10.8143 24.3792 10.7728 26.353 11.2763 26.7306C11.7797 27.1083 12.2003 27.7319 12.7066 27.7319C13.2129 27.7319 14.679 26.7306 14.679 26.7306C14.679 26.7306 13.5033 28.3255 12.7066 28.3255C11.9099 28.3255 11.2763 27.4859 10.8171 27.5703C10.358 27.6546 10.0204 28.9133 9.93603 29.5427C9.85164 30.172 10.398 32.6494 10.398 32.6494C10.398 32.6494 9.43255 31.5151 9.30668 30.3408C9.18081 29.1665 9.6428 27.7805 9.68428 27.277C9.72576 26.7736 9.39822 25.7237 9.55842 24.5909C9.60276 24.2876 8.76029 24.7582 8.38268 25.1773C8.00507 25.5964 7.1626 26.9037 7.1626 26.9037Z" fill="#640C24"/>
<path d="M14.0038 19.9236C13.8842 19.6352 13.8225 19.3261 13.8222 19.0139C13.8508 18.5934 13.9065 18.5104 13.9065 18.4117C13.9065 18.313 13.1914 18.0069 13.2343 17.1387C13.2772 16.2705 13.8221 16.1604 14.41 16.2018C14.9979 16.2433 15.2439 16.7196 15.2353 17.2503C15.221 18.1328 14.4944 18.2858 14.3542 18.3702C14.2141 18.4546 14.0324 18.7621 13.9909 19.0854C13.9805 19.3648 13.9848 19.6446 14.0038 19.9236V19.9236Z" fill="#640C24"/>
<path d="M23.6873 22.2036C24.0934 22.2036 24.4225 21.715 24.4225 21.1122C24.4225 20.5095 24.0934 20.0209 23.6873 20.0209C23.2813 20.0209 22.9521 20.5095 22.9521 21.1122C22.9521 21.715 23.2813 22.2036 23.6873 22.2036Z" fill="#640C24"/>
<path d="M26.5077 26.9037C26.5077 26.9037 26.0457 25.1001 25.0387 24.3019C24.0317 23.5038 22.3525 22.7915 21.5544 22.2036C20.7563 21.6157 19.5405 20.0581 19.5405 20.0581C19.5405 20.0581 20.5803 21.9276 21.1768 22.4496C21.8476 23.0375 22.4355 23.2892 22.6457 23.8342C22.856 24.3792 22.8975 26.353 22.394 26.7306C21.8905 27.1083 21.47 27.7319 20.9637 27.7319C20.4573 27.7319 18.9912 26.7306 18.9912 26.7306C18.9912 26.7306 20.167 28.3255 20.9637 28.3255C21.7604 28.3255 22.394 27.4859 22.8531 27.5703C23.3123 27.6546 23.6498 28.9133 23.7342 29.5427C23.8186 30.172 23.2722 32.6494 23.2722 32.6494C23.2722 32.6494 24.2377 31.5151 24.3636 30.3408C24.4894 29.1665 24.0274 27.7805 23.986 27.277C23.9445 26.7736 24.2792 25.7237 24.1118 24.5909C24.0675 24.2876 24.91 24.7582 25.2876 25.1773C25.6652 25.5964 26.5077 26.9037 26.5077 26.9037Z" fill="#640C24"/>
<path d="M20.8337 16.5136L19.502 19.6131C18.917 19.184 17.9444 18.2414 18.7082 16.957C19.3933 15.8084 20.3173 16.1703 20.8337 16.5136Z" fill="#640C24"/>
<path d="M26.5996 26.9738L29.1299 27.626L28.9482 28.0179L26.5996 26.9738Z" fill="#640C24"/>
<path d="M28.4692 28.2439L26.6255 26.9738L28.7352 27.9035" fill="#640C24"/>
<path d="M29.5375 46.1647C29.5382 46.1604 29.5382 46.1561 29.5375 46.1518C29.536 46.1396 29.5331 46.1276 29.5289 46.1161C29.5293 46.108 29.5293 46.0998 29.5289 46.0917C29.5237 46.0745 29.517 46.0577 29.5089 46.0417C29.5019 46.0256 29.4933 46.0102 29.4831 45.9959C29.4759 45.9827 29.4672 45.9702 29.4574 45.9587C29.4496 45.9471 29.441 45.9362 29.4316 45.9258C29.4234 45.9146 29.4143 45.9041 29.4044 45.8944C29.3887 45.8772 29.3715 45.8615 29.353 45.8443L29.3315 45.8243C29.2744 45.7749 29.2137 45.73 29.1498 45.6898L29.0755 45.6441L28.9782 45.5926L28.8809 45.5439C28.8509 45.5282 28.818 45.5139 28.7837 45.4996H28.7722L28.6678 45.4552C28.6006 45.4252 28.5248 45.398 28.4533 45.3723L28.3889 45.348C28.1815 45.2736 27.9455 45.2049 27.6866 45.1334L27.5607 45.102L27.4363 45.0705L27.2675 45.029C27.1245 44.9975 26.9886 44.9661 26.8384 44.936L26.5023 44.8688L26.2377 44.8202L25.8272 44.7501L25.4867 44.6972L25.2765 44.6657L25.0491 44.6328C24.7759 44.5942 24.4912 44.5584 24.1994 44.5255L23.7703 44.4783C23.6087 44.4597 23.4457 44.4454 23.2797 44.4283L22.8106 44.3853L22.2685 44.341L21.9924 44.321C21.5481 44.2876 21.0913 44.2595 20.6222 44.2366L20.4534 44.228L20.256 44.2194C19.5742 44.188 18.87 44.166 18.1434 44.1536L17.5441 44.1465H16.8461C9.83739 44.1465 4.14893 45.0733 4.14893 46.2148V46.3835L5.1187 49.3658C7.02963 50.1139 11.5552 50.6402 16.8475 50.6402C22.0525 50.6402 26.5266 50.1296 28.4876 49.3987L29.4316 46.4922C29.4457 46.4769 29.4582 46.4601 29.4688 46.4422C29.5173 46.3762 29.5438 46.2966 29.5446 46.2148C29.5434 46.1979 29.541 46.1812 29.5375 46.1647V46.1647Z" fill="white" stroke="#640C24" stroke-width="0.5" stroke-miterlimit="10"/>
<path d="M16.8434 37.8301C9.0766 37.8301 2.77881 39.0587 2.77881 40.5735V43.6959C2.77881 45.2092 9.07231 46.4364 16.8434 46.4364C24.6144 46.4364 30.9079 45.2092 30.9079 43.6959V40.5735C30.9079 39.0587 24.6115 37.8301 16.8434 37.8301ZM16.8434 43.3154C12.0531 43.3154 7.82076 42.8477 5.2819 42.134C7.82076 41.4188 12.0531 40.9525 16.8434 40.9525C21.6336 40.9525 25.8645 41.4202 28.4048 42.134C25.8645 42.8477 21.635 43.3154 16.8434 43.3154V43.3154Z" fill="white" stroke="#640C24" stroke-width="0.5" stroke-miterlimit="10"/>
<path d="M4.42057 42.7919L3.81982 42.6146C3.83842 42.4401 3.84843 42.3557 3.86846 42.1969C4.57648 42.3914 4.92834 42.4901 5.62778 42.6918C5.60632 42.8634 5.59631 42.9536 5.57628 43.1366L4.98126 42.9578C4.91404 43.5843 4.884 43.9462 4.82535 44.6042L4.26895 44.4354C4.32188 43.7688 4.35048 43.4084 4.42057 42.7919Z" fill="#640C24"/>
<path d="M5.93936 42.7589L7.40833 43.0764C7.39831 43.2581 7.39402 43.3525 7.38544 43.5413L6.4786 43.3396C6.4786 43.4755 6.47002 43.5456 6.4643 43.6843L7.11081 43.8274C7.10366 44.009 7.09937 44.1006 7.09222 44.2822L6.44856 44.1392C6.44856 44.3008 6.44141 44.3809 6.43712 44.5397L7.37972 44.7471C7.37113 44.9302 7.36827 45.0217 7.36112 45.1962C6.77182 45.0746 6.47431 45.0117 5.875 44.883C5.89359 44.0462 5.90646 43.5456 5.93936 42.7589Z" fill="#640C24"/>
<path d="M7.81382 43.1538L8.35735 43.2439C8.64342 43.7546 8.7936 44.0349 9.07252 44.5627C9.07252 44.0835 9.08539 43.8318 9.09541 43.3669L9.5946 43.447C9.57171 44.2795 9.56027 44.7715 9.54739 45.5382L9.05536 45.4667C8.75928 44.9861 8.60909 44.7129 8.303 44.1794C8.303 44.6628 8.303 44.9117 8.303 45.3551L7.81096 45.2807C7.8081 44.4754 7.8081 43.9748 7.81382 43.1538Z" fill="#640C24"/>
<path d="M10.019 43.5012L10.6784 43.5799C11.2763 43.65 11.7741 43.9575 11.7583 44.7571C11.744 45.5867 11.2477 45.7197 10.677 45.661L10.0376 45.5952C10.0248 44.8329 10.0219 44.3394 10.019 43.5012ZM10.7042 45.2391C11.1047 45.2834 11.2234 45.1318 11.2277 44.7027C11.2277 44.3108 11.1104 44.1077 10.7013 44.0605L10.5583 44.0433C10.5583 44.5225 10.5583 44.7714 10.5583 45.2234L10.7042 45.2391Z" fill="#640C24"/>
<path d="M12.1191 43.736C12.6913 43.7832 12.9773 43.806 13.5366 43.849C13.5366 44.0378 13.5366 44.135 13.5266 44.3267L12.6541 44.258C12.6541 44.4011 12.6541 44.4654 12.6541 44.6042L13.2734 44.6514C13.2734 44.8302 13.2734 44.9203 13.2663 45.0934L12.6512 45.0462C12.6512 45.1992 12.6512 45.275 12.6512 45.4209L13.5523 45.4853C13.5523 45.6555 13.5523 45.737 13.5452 45.8929C12.9816 45.8557 12.6999 45.8371 12.132 45.7971C12.1206 45.0662 12.1206 44.5799 12.1191 43.736Z" fill="#640C24"/>
<path d="M13.918 43.8733L14.6904 43.909C15.1982 43.9319 15.5028 44.1265 15.4885 44.6357C15.4785 44.9689 15.3455 45.1477 15.0895 45.2278C15.2468 45.5454 15.324 45.6984 15.4785 45.973L14.9335 45.953C14.7905 45.7013 14.7176 45.564 14.5717 45.2765H14.4286C14.4286 45.5625 14.4286 45.6927 14.4286 45.9387L13.9237 45.9187C13.9137 45.2006 13.9166 44.7186 13.918 43.8733ZM14.6575 44.8574C14.8735 44.8674 14.9693 44.8059 14.9736 44.6285C14.9779 44.4511 14.8821 44.3825 14.6646 44.3739L14.4372 44.3639C14.4372 44.5584 14.4372 44.65 14.4372 44.8474L14.6575 44.8574Z" fill="#640C24"/>
<path d="M17.1324 44.4425H16.5688C16.5688 44.2508 16.5688 44.1564 16.5688 43.9647C17.2368 43.9647 17.5701 43.9647 18.2395 43.9647C18.2395 44.1535 18.228 44.2508 18.2209 44.4425H17.6559C17.6359 45.1033 17.623 45.4437 17.6073 45.9972H17.0909C17.1081 45.4494 17.1167 45.1047 17.1324 44.4425Z" fill="#640C24"/>
<path d="M18.8538 43.9303L19.3516 43.9117C19.6048 44.7514 19.7206 45.2291 19.9595 45.95L19.4346 45.9643C19.3931 45.8313 19.3716 45.7612 19.3302 45.6181L18.7223 45.6353C18.6679 45.7783 18.6422 45.8513 18.5892 45.9857L18.1187 45.9972C18.399 45.2792 18.552 44.79 18.8538 43.9303ZM19.2257 45.2391C19.1628 45.0145 19.1313 44.8987 19.067 44.667C18.984 44.9058 18.9425 45.0245 18.8624 45.252L19.2257 45.2391Z" fill="#640C24"/>
<path d="M20.3333 43.8747L20.8725 43.8361C20.8554 44.4983 20.8411 44.863 20.821 45.4867L21.6435 45.4338C21.6349 45.6083 21.632 45.6941 21.6249 45.8629C21.0857 45.8943 20.8182 45.9101 20.2847 45.9387C20.2975 45.2049 20.3176 44.72 20.3333 43.8747Z" fill="#640C24"/>
<path d="M22.0024 43.7445C22.5745 43.6816 22.8606 43.6501 23.4327 43.5829C23.4327 43.7717 23.4327 43.869 23.4198 44.0635L22.5302 44.165C22.5302 44.3081 22.5302 44.3753 22.5216 44.5155L23.1538 44.4454L23.1395 44.8988C22.8878 44.9274 22.7619 44.9403 22.5102 44.966C22.5102 45.1234 22.5102 45.2006 22.5001 45.3522L23.4241 45.2578C23.4241 45.4395 23.4156 45.5281 23.4084 45.6969C22.8263 45.7527 22.5359 45.7799 21.9595 45.8314C21.9795 45.0776 21.9938 44.5898 22.0024 43.7445Z" fill="#640C24"/>
<path d="M23.8018 43.5357L24.341 43.4485C24.6428 43.869 24.7901 44.0964 25.0833 44.5384C25.0833 44.0478 25.0905 43.7932 25.0833 43.3269L25.5868 43.2411C25.5868 44.0707 25.5868 44.5727 25.5711 45.3995L25.0676 45.4753C24.7629 45.0633 24.6113 44.8402 24.3038 44.404C24.3038 44.8917 24.3038 45.1406 24.3038 45.5868L23.8103 45.6555C23.8075 44.8688 23.8132 44.3753 23.8018 43.5357Z" fill="#640C24"/>
<path d="M26.535 43.5084L25.9471 43.6515C25.9371 43.4598 25.9314 43.3654 25.9199 43.1823C26.6093 43.0221 26.9555 42.9406 27.6506 42.7747C27.6635 42.952 27.6692 43.045 27.6792 43.2338L27.0885 43.3768C27.1243 44.0348 27.1343 44.4052 27.16 45.0689C26.9398 45.1204 26.8282 45.1447 26.6079 45.1934C26.5807 44.5383 26.5707 44.1692 26.535 43.5084Z" fill="#640C24"/>
<path d="M28.0217 44.3782L28.3936 43.9605C28.4658 44.0394 28.5604 44.0943 28.6646 44.1181C28.7689 44.1418 28.8779 44.1333 28.9772 44.0936C29.146 44.0306 29.2632 43.9291 29.2475 43.7946C29.2318 43.6602 29.0558 43.6659 28.847 43.6873C28.4994 43.7217 28.0432 43.7832 27.9688 43.3126C27.903 42.8835 28.1733 42.5774 28.6325 42.4215C29.0616 42.2785 29.3576 42.3643 29.5565 42.493C29.432 42.6575 29.3677 42.7419 29.2404 42.9221C29.1632 42.8706 29.0756 42.8369 28.9838 42.8235C28.892 42.8102 28.7983 42.8175 28.7097 42.8449C28.5524 42.9007 28.4823 42.9793 28.498 43.0766C28.5195 43.211 28.6882 43.2053 28.8971 43.181C29.2432 43.1424 29.7124 43.0709 29.7839 43.5572C29.8354 43.9019 29.6494 44.3424 29.0158 44.5713C28.5452 44.7344 28.2363 44.6099 28.0217 44.3782Z" fill="#640C24"/>
<path d="M10.4523 46.4121C10.6998 46.4507 10.8342 46.4679 11.1089 46.5008C11.1322 46.7743 11.1724 47.0461 11.229 47.3147H11.2376C11.6667 47.0057 11.8341 46.8856 12.1802 46.5995C12.482 46.6238 12.635 46.6352 12.9368 46.6553C12.7938 47.0586 12.7466 47.2632 12.5421 47.7438C12.2961 47.728 12.1716 47.718 11.9199 47.6994C12.0887 47.359 12.1444 47.2188 12.2617 46.9385H12.2546C12.1787 47.0228 12.0938 47.0986 12.0014 47.1645C11.7468 47.3461 11.6124 47.4362 11.2991 47.6579C11.0688 47.6393 10.953 47.6293 10.727 47.6079C10.7084 47.3461 10.6926 47.2346 10.6698 47.0272C10.66 46.9438 10.6658 46.8595 10.6869 46.7783V46.7783C10.4924 47.0472 10.4009 47.1645 10.1248 47.5492L9.56982 47.4791C10.0118 46.907 10.1291 46.8283 10.4523 46.4121ZM14.2656 46.7296L14.7219 46.7482C14.945 47.1587 15.048 47.4949 15.2354 47.9111C15.0766 47.9111 14.9994 47.8982 14.8149 47.8882C14.7705 47.7924 14.7477 47.7452 14.7019 47.635L13.9109 47.5821C13.8094 47.678 13.7564 47.7252 13.6449 47.821L13.0942 47.7881C13.5066 47.4603 13.8978 47.1068 14.2656 46.7296V46.7296ZM14.6218 47.4448C14.5474 47.2803 14.5102 47.1959 14.4344 47.0386C14.3028 47.1816 14.2342 47.2617 14.0897 47.4105L14.6218 47.4448ZM15.48 47.3418C15.5343 46.9614 15.8919 46.7611 16.4512 46.7597C16.8274 46.7597 17.1335 46.8169 17.2479 47.1187L16.8188 47.1888C16.7896 47.111 16.7346 47.0456 16.6631 47.0034C16.5915 46.9613 16.5076 46.9449 16.4254 46.9571C16.2624 46.9571 15.9563 47.0014 15.9077 47.349C15.859 47.6966 16.1179 47.7781 16.3368 47.7781C16.5556 47.7781 16.7401 47.708 16.7973 47.5707H16.4283C16.4369 47.4906 16.4426 47.4491 16.4526 47.3676C16.7702 47.3676 16.9332 47.3676 17.2665 47.3676C17.2479 47.625 17.2365 47.7624 17.2279 47.9683H16.8317C16.8317 47.9125 16.8388 47.8825 16.8445 47.8253C16.7916 47.8925 16.5842 47.9898 16.2652 47.9812C15.6302 47.9526 15.4342 47.708 15.4857 47.3361L15.48 47.3418ZM17.8658 46.764L18.3307 46.754C18.658 46.9899 18.9699 47.2465 19.2647 47.5221V47.5221C19.2649 47.2574 19.2511 46.9929 19.2232 46.7296L19.5879 46.7182C19.6509 47.133 19.6108 47.5278 19.6695 47.9369C19.5336 47.944 19.4735 47.9469 19.2947 47.9526C18.8742 47.7023 18.6825 47.5006 18.3021 47.1773C18.3021 47.5092 18.292 47.708 18.3021 47.9726H17.8372C17.8329 47.5592 17.8744 47.173 17.8658 46.764ZM20.0485 46.6982C20.5305 46.6753 20.8066 46.6596 21.383 46.6209C21.4231 46.7096 21.4402 46.754 21.4746 46.8426C21.0698 46.867 20.8709 46.877 20.5048 46.8941C20.5262 46.9971 20.5348 47.0515 20.552 47.1587C20.8295 47.1444 20.9811 47.1359 21.2786 47.1173C21.3029 47.2002 21.3144 47.2417 21.3372 47.3247C21.0254 47.3476 20.8724 47.3576 20.5849 47.3747C20.6035 47.4977 20.6121 47.5592 20.6349 47.6751C21.064 47.6436 21.3144 47.6236 21.7949 47.5807C21.825 47.6608 21.8407 47.6994 21.875 47.7767C21.1599 47.8424 20.7794 47.8696 20.1915 47.9068C20.11 47.4791 20.1386 47.1316 20.0471 46.6953L20.0485 46.6982ZM22.5201 46.7726C22.2512 46.7926 22.1168 46.8012 21.8507 46.8183C21.8107 46.7311 21.7892 46.6867 21.7449 46.5966C22.45 46.5466 22.8291 46.5151 23.55 46.4536C23.6015 46.5537 23.6258 46.5966 23.6716 46.6839L23.0165 46.7397C23.2324 47.1216 23.3025 47.2489 23.4999 47.6107C23.3025 47.6351 23.1981 47.6479 22.985 47.6708C22.7862 47.3046 22.729 47.1559 22.5187 46.764L22.5201 46.7726Z" fill="#640C24"/>
<path d="M10.8903 41.2099C10.9246 40.3446 10.6371 39.5193 10.6628 39.1932C10.6886 38.867 10.9704 38.8027 10.6628 38.4951C10.5971 38.4279 10.4926 38.3021 10.3639 38.139C9.89904 37.5397 9.1238 36.4498 8.81628 36.0321C8.42579 35.5 7.8651 34.4931 7.78071 34.2141C7.7114 33.8838 7.5788 33.57 7.39023 33.2901C7.39023 33.2901 6.18731 32.03 6.63501 31.6953C6.97686 31.4378 8.17691 32.9426 8.92355 33.9338C9.4442 34.35 10.311 35.038 10.6257 35.2569C11.0025 35.4962 11.3927 35.714 11.7942 35.9091C11.833 35.9005 11.8686 35.8812 11.8969 35.8534C11.9252 35.8256 11.9452 35.7904 11.9544 35.7518C12.0102 35.4657 11.8987 34.4373 11.9258 34.1297C11.953 33.8222 12.262 33.15 12.5981 33.3459C12.9342 33.5419 12.7411 34.1569 12.7097 34.4902C12.6782 34.8235 12.8527 35.7217 12.8527 36.085C12.8527 36.4483 12.9371 36.9518 12.8255 37.3437C12.7508 37.5609 12.6494 37.768 12.5237 37.9602C12.4484 38.0723 12.3896 38.1946 12.3492 38.3235C12.2934 38.5752 12.6353 40.0027 12.6853 40.8981C12.6853 40.951 12.6853 41.0083 12.6982 41.0712C12.7411 41.6204 12.8413 42.5115 12.9256 43.2038C12.2 43.1619 11.5015 43.1099 10.8302 43.0479C10.8431 42.4686 10.8645 41.7606 10.8946 41.29C10.8874 41.2643 10.8903 41.2371 10.8903 41.2099Z" fill="#640C24"/>
<path d="M26.3295 33.2902C26.1409 33.5701 26.0083 33.8839 25.939 34.2142C25.8546 34.4931 25.2954 35.5015 24.9035 36.0322C24.5959 36.4498 23.8193 37.544 23.353 38.1419C23.2257 38.3035 23.1227 38.428 23.0569 38.4952C22.7494 38.8027 23.0283 38.8585 23.0569 39.1932C23.0855 39.5279 22.7951 40.3461 22.8295 41.2129C22.8295 41.24 22.8295 41.2658 22.8295 41.293C22.8595 41.7578 22.8809 42.4701 22.8938 43.048C22.223 43.1109 21.5236 43.1638 20.7998 43.2039C20.8813 42.5145 20.9829 41.6305 21.0258 41.077C21.0258 41.0126 21.0344 40.954 21.0387 40.901C21.0945 40.0057 21.4306 38.5782 21.3748 38.3264C21.335 38.1981 21.2767 38.0762 21.2017 37.9646C21.075 37.7722 20.9731 37.5646 20.8985 37.3467C20.7869 36.9547 20.8713 36.4527 20.8713 36.0879C20.8713 35.7232 21.0387 34.8278 21.0144 34.4931C20.99 34.1584 20.7898 33.5405 21.1259 33.3488C21.4621 33.1572 21.7696 33.8237 21.7982 34.1327C21.8268 34.4416 21.7138 35.4743 21.7696 35.7547C21.7788 35.7933 21.7988 35.8285 21.8271 35.8563C21.8554 35.8842 21.891 35.9035 21.9298 35.912C22.3313 35.7169 22.7215 35.4991 23.0984 35.2598C23.413 35.0409 24.2798 34.3529 24.8005 33.9367C25.5428 32.9455 26.7429 31.4408 27.089 31.6982C27.5324 32.0315 26.3295 33.2902 26.3295 33.2902Z" fill="#640C24"/>
<path d="M30.9076 40.5735C30.9061 40.679 30.8775 40.7825 30.8247 40.8738C30.7731 40.9639 30.708 41.0454 30.6316 41.1156C30.5379 41.2067 30.4348 41.2878 30.3241 41.3573C30.1865 41.4472 30.0431 41.5279 29.895 41.599C29.7247 41.682 29.5345 41.7621 29.3228 41.8408C29.0482 41.9423 28.7435 42.041 28.4088 42.134C25.8686 41.4188 21.639 40.9525 16.8474 40.9525C12.0558 40.9525 7.8248 41.4202 5.28595 42.134C4.94982 42.041 4.64516 41.9423 4.37339 41.8408C4.16313 41.7621 3.97147 41.6806 3.80126 41.599C3.65308 41.5279 3.50974 41.4472 3.37216 41.3573C3.26201 41.2869 3.15859 41.2064 3.0632 41.117C2.9887 41.0458 2.92465 40.9644 2.87296 40.8753C2.81906 40.7837 2.78998 40.6797 2.78857 40.5735C2.78857 39.0587 9.08208 37.8301 16.8531 37.8301C24.6242 37.8301 30.9076 39.0587 30.9076 40.5735Z" stroke="#640C24" stroke-width="0.5" stroke-miterlimit="10"/>
<path d="M2.86328 40.8752C3.63137 39.5021 9.59733 38.4336 16.8434 38.4336C24.0895 38.4336 30.0526 39.5021 30.825 40.8738" stroke="#640C24" stroke-width="0.5" stroke-miterlimit="10"/>
<path d="M3.05371 41.1169C4.34102 39.8625 10.0266 38.9156 16.8436 38.9156C23.6606 38.9156 29.3405 39.8611 30.6321 41.1155" stroke="#640C24" stroke-width="0.5" stroke-miterlimit="10"/>
<path d="M3.3623 41.3572C5.09302 40.2244 10.474 39.399 16.8433 39.399C23.2126 39.399 28.5935 40.2244 30.3242 41.3572" stroke="#640C24" stroke-width="0.5" stroke-miterlimit="10"/>
<path d="M3.79541 41.5991C5.87799 40.5979 10.9357 39.8827 16.843 39.8827C22.7503 39.8827 27.808 40.5979 29.8905 41.5991" stroke="#640C24" stroke-width="0.5" stroke-miterlimit="10"/>
<path d="M4.36768 41.8407C6.71486 40.9639 11.4207 40.3646 16.8431 40.3646C22.2655 40.3646 26.9728 40.9639 29.32 41.8407" stroke="#640C24" stroke-width="0.5" stroke-miterlimit="10"/>
<path d="M30.8108 13.4642V40.8995C30.7606 40.9793 30.7006 41.0524 30.632 41.117C30.5382 41.2081 30.4352 41.2891 30.3244 41.3587C30.1868 41.4486 30.0435 41.5293 29.8953 41.6004C29.7251 41.6834 29.5349 41.7635 29.3232 41.8421C29.1115 41.9208 28.9198 41.9852 28.6938 42.0524V13.4642C28.6938 13.1831 28.8055 12.9135 29.0043 12.7147C29.203 12.516 29.4726 12.4043 29.7537 12.4043C30.0348 12.4043 30.3044 12.516 30.5032 12.7147C30.7019 12.9135 30.8136 13.1831 30.8136 13.4642H30.8108Z" fill="white" stroke="#640C24" stroke-width="0.83955" stroke-miterlimit="10"/>
<path d="M29.6768 15.9258H29.8198V17.1687H29.6768V15.9258Z" fill="#640C24"/>
<path d="M29.2739 17.9412H29.4298L30.082 18.9224V17.9412H30.2251V19.1827H30.092L29.4155 18.1815V19.1827H29.2725L29.2739 17.9412Z" fill="#640C24"/>
<path d="M29.2129 22.0347C29.2129 21.6342 29.4432 21.3896 29.7507 21.3896C30.0582 21.3896 30.2842 21.6342 30.2842 22.0347C30.2842 22.4352 30.0582 22.6784 29.7507 22.6784C29.4432 22.6784 29.2129 22.4338 29.2129 22.0347ZM30.1369 22.0347C30.1369 21.71 29.9753 21.5241 29.7507 21.5241C29.5261 21.5241 29.3631 21.71 29.3631 22.0347C29.3631 22.3594 29.5218 22.5468 29.7507 22.5468C29.9796 22.5468 30.1369 22.358 30.1369 22.0347V22.0347Z" fill="#640C24"/>
<path d="M29.2887 24.2404V23.428H29.4317V24.2204C29.4254 24.2644 29.429 24.3093 29.4423 24.3517C29.4556 24.3941 29.4783 24.433 29.5086 24.4656C29.5389 24.4981 29.5762 24.5234 29.6176 24.5396C29.659 24.5559 29.7035 24.5626 29.7478 24.5594C29.9638 24.5594 30.0596 24.4249 30.0596 24.2232V23.428H30.2027V24.2376C30.2065 24.2986 30.1972 24.3599 30.1754 24.4171C30.1537 24.4743 30.1199 24.5262 30.0764 24.5693C30.0329 24.6123 29.9807 24.6456 29.9233 24.6669C29.8659 24.6881 29.8046 24.6968 29.7435 24.6924C29.6826 24.6981 29.6212 24.6903 29.5637 24.6696C29.5061 24.649 29.4538 24.6159 29.4104 24.5728C29.367 24.5297 29.3336 24.4776 29.3126 24.4201C29.2915 24.3627 29.2834 24.3013 29.2887 24.2404V24.2404Z" fill="#640C24"/>
<path d="M29.3345 25.4434H29.7636C30.0496 25.4434 30.2056 25.5621 30.2056 25.7895C30.2109 25.8723 30.1841 25.954 30.1309 26.0176C30.0776 26.0813 30.0019 26.122 29.9195 26.1314L30.2241 26.6849H30.064L29.7664 26.1499H29.4804V26.6849H29.3373L29.3345 25.4434ZM29.7521 26.0155C29.9467 26.0155 30.0554 25.9611 30.0554 25.7924C30.0554 25.6236 29.9481 25.5735 29.7507 25.5735H29.4804V26.0241L29.7521 26.0155Z" fill="#640C24"/>
<path d="M29.2812 28.9147H29.4243V29.4353H30.0637V28.9147H30.2067V30.1562H30.0637V29.5712H29.4243V30.1562H29.2812V28.9147Z" fill="#640C24"/>
<path d="M29.672 30.9243H29.8265L30.2671 32.1744H30.114L29.991 31.8183H29.4975L29.3759 32.1744H29.2329L29.672 30.9243ZM29.9467 31.6867L29.7478 31.1045L29.5462 31.6867H29.9467Z" fill="#640C24"/>
<path d="M29.2739 32.944H29.4298L30.082 33.9266V32.944H30.2251V34.1855H30.092L29.4155 33.1757V34.1841H29.2725L29.2739 32.944Z" fill="#640C24"/>
<path d="M29.3086 34.9594H29.6347C30.0352 34.9594 30.2612 35.1596 30.2612 35.5758C30.2612 35.9921 30.0295 36.2009 29.6347 36.2009H29.3086V34.9594ZM29.6533 36.0679C29.9537 36.0679 30.1139 35.9248 30.1139 35.5758C30.1139 35.2268 29.9522 35.0952 29.6504 35.0952H29.4516V36.0679H29.6533Z" fill="#640C24"/>
<path d="M29.2891 37.9144L29.4135 37.8601C29.4363 37.9346 29.4833 37.9993 29.547 38.0441C29.6107 38.0889 29.6876 38.1112 29.7654 38.1075C29.9413 38.1075 30.0514 38.0346 30.0514 37.903C30.0514 37.7714 29.9842 37.7199 29.7396 37.6427C29.495 37.5654 29.3277 37.4996 29.3277 37.2793C29.3277 37.0891 29.4893 36.9504 29.7267 36.9504C29.8197 36.944 29.9124 36.9675 29.9911 37.0174C30.0698 37.0673 30.1305 37.141 30.1644 37.2279L30.0471 37.2936C30.0228 37.229 29.9785 37.1739 29.9206 37.1363C29.8627 37.0988 29.7942 37.0807 29.7253 37.0848C29.5665 37.0848 29.4736 37.1621 29.4736 37.2665C29.4736 37.3995 29.5565 37.4438 29.7997 37.5211C30.0429 37.5983 30.1988 37.6813 30.1988 37.893C30.1988 38.1047 30.0185 38.2391 29.7554 38.2391C29.6528 38.2437 29.5515 38.2144 29.4673 38.1557C29.383 38.097 29.3204 38.0122 29.2891 37.9144V37.9144Z" fill="#640C24"/>
<path d="M29.5404 46.2047C29.5396 46.2866 29.5131 46.3661 29.4646 46.4321C29.454 46.45 29.4415 46.4668 29.4275 46.4822C29.3846 46.5314 29.3366 46.576 29.2844 46.6152C29.1981 46.6847 29.1051 46.7455 29.0069 46.7969C28.8808 46.8662 28.7504 46.9273 28.6164 46.9799C28.462 47.0429 28.2889 47.1029 28.1001 47.1616C27.8526 47.2388 27.578 47.3118 27.2748 47.3833C24.9862 47.9225 21.1629 48.2744 16.8333 48.2744C12.5037 48.2744 8.68036 47.9225 6.39181 47.3833C6.08858 47.3118 5.81967 47.2403 5.56793 47.1616C5.3777 47.1029 5.20463 47.0414 5.05158 46.9799C4.91717 46.9273 4.78627 46.8662 4.65967 46.7969C4.56163 46.7445 4.4683 46.6837 4.38075 46.6152C4.3148 46.5635 4.25694 46.5023 4.20911 46.4335C4.16118 46.3667 4.13474 46.2869 4.1333 46.2047C4.1333 45.88 4.5953 45.571 5.42061 45.2979C7.9752 45.9873 12.1346 46.4421 16.8319 46.4421C21.5291 46.4421 25.69 45.993 28.2446 45.2979L28.369 45.3408L28.4334 45.3651C28.5092 45.3908 28.5764 45.418 28.6479 45.448L28.7523 45.4924H28.7638C28.7981 45.5067 28.831 45.521 28.861 45.5367L28.9583 45.5854L29.0556 45.6368L29.1299 45.6826C29.1938 45.7228 29.2545 45.7677 29.3116 45.8171L29.333 45.8371C29.3516 45.8543 29.3688 45.87 29.3845 45.8872C29.3944 45.8969 29.4035 45.9074 29.4117 45.9186C29.4211 45.9289 29.4297 45.9399 29.4375 45.9515C29.4473 45.963 29.456 45.9754 29.4632 45.9887C29.4734 46.003 29.482 46.0183 29.489 46.0345C29.4971 46.0505 29.5038 46.0673 29.509 46.0845C29.5094 46.0926 29.5094 46.1008 29.509 46.1089C29.5132 46.1204 29.5161 46.1324 29.5176 46.1446V46.1446C29.5183 46.1489 29.5183 46.1532 29.5176 46.1575C29.5263 46.1727 29.5339 46.1884 29.5404 46.2047V46.2047Z" stroke="#640C24" stroke-width="0.5" stroke-miterlimit="10"/>
<path d="M29.5407 46.2047C29.5399 46.2865 29.5134 46.3661 29.4649 46.4321C29.4543 46.45 29.4418 46.4668 29.4277 46.4821L29.5364 46.1517C29.5372 46.156 29.5372 46.1604 29.5364 46.1646C29.5386 46.1779 29.54 46.1912 29.5407 46.2047V46.2047Z" fill="#972200"/>
<path d="M16.9448 61.0144C18.4681 59.534 20.7194 57.4085 23.4514 55.8452C26.329 54.2013 29.4434 53.012 32.6842 52.3194V14.7014C32.7128 13.6616 32.7686 11.0069 30.7533 9.32764C29.383 8.18336 26.0532 8.3264 23.2826 7.22789C20.565 6.15514 18.8128 4.70477 16.8461 2C14.8751 4.70477 13.1272 6.15514 10.4096 7.22789C7.63898 8.31924 4.30915 8.18479 2.93888 9.32764C0.923535 11.0069 0.979318 13.6616 1.00792 14.7014V52.3194C4.24926 53.012 7.3641 54.2013 10.2422 55.8452C12.9742 57.4085 15.2241 59.534 16.7474 61.0144L16.8504 61.1131L16.9448 61.0144Z" stroke="#640C24" stroke-width="2" stroke-miterlimit="10"/>
<path d="M19.0503 17.5264C19.1396 17.5264 19.2119 17.454 19.2119 17.3648C19.2119 17.2755 19.1396 17.2031 19.0503 17.2031C18.961 17.2031 18.8887 17.2755 18.8887 17.3648C18.8887 17.454 18.961 17.5264 19.0503 17.5264Z" fill="white"/>
<path d="M18.4639 18.429C18.5531 18.429 18.6255 18.3566 18.6255 18.2673C18.6255 18.1781 18.5531 18.1057 18.4639 18.1057C18.3746 18.1057 18.3022 18.1781 18.3022 18.2673C18.3022 18.3566 18.3746 18.429 18.4639 18.429Z" fill="white"/>
<path d="M19.495 17.7124C19.5604 18.0413 19.493 18.3827 19.3076 18.6621C18.9944 19.1241 18.6196 19.0612 18.6196 19.0612C18.6196 19.0612 18.9057 19.3873 19.3691 18.9182C19.8326 18.449 19.495 17.7124 19.495 17.7124Z" fill="white"/>
<path d="M15.041 16.8184C15.1303 16.8184 15.2027 16.746 15.2027 16.6567C15.2027 16.5675 15.1303 16.4951 15.041 16.4951C14.9518 16.4951 14.8794 16.5675 14.8794 16.6567C14.8794 16.746 14.9518 16.8184 15.041 16.8184Z" fill="white"/>
<path d="M14.27 17.0401C14.3593 17.0401 14.4317 16.9677 14.4317 16.8784C14.4317 16.7892 14.3593 16.7168 14.27 16.7168C14.1808 16.7168 14.1084 16.7892 14.1084 16.8784C14.1084 16.9677 14.1808 17.0401 14.27 17.0401Z" fill="white"/>
<path d="M15.6581 16.9772C15.5074 17.2766 15.244 17.5039 14.9258 17.6094C14.3937 17.781 14.1377 17.5021 14.1377 17.5021C14.1377 17.5021 14.1634 17.9312 14.82 17.8454C15.4765 17.7596 15.6581 16.9772 15.6581 16.9772Z" fill="white"/>
<path d="M11.9715 49.6088L12.4006 49.596C12.4003 49.6465 12.4142 49.696 12.4407 49.739C12.4636 49.7677 12.4928 49.7907 12.526 49.8063C12.5593 49.8219 12.5956 49.8297 12.6323 49.8291C12.6863 49.8363 12.741 49.8241 12.7868 49.7948C12.804 49.7842 12.8185 49.7698 12.8292 49.7527C12.8399 49.7356 12.8464 49.7162 12.8483 49.6961C12.8493 49.6774 12.846 49.6588 12.8385 49.6417C12.8311 49.6245 12.8197 49.6094 12.8054 49.5974C12.7384 49.5522 12.6622 49.5224 12.5823 49.5102C12.4292 49.4849 12.2859 49.4187 12.1675 49.3185C12.1261 49.2751 12.0943 49.2235 12.0741 49.1671C12.0539 49.1107 12.0458 49.0507 12.0502 48.9909C12.0528 48.9037 12.0774 48.8186 12.1217 48.7435C12.1666 48.6686 12.2343 48.61 12.3148 48.5761C12.4249 48.5358 12.5431 48.5221 12.6595 48.5361C12.8071 48.5393 12.9499 48.5894 13.0672 48.6791C13.168 48.7713 13.2307 48.8978 13.2431 49.0338L12.8283 49.0496C12.8226 48.9912 12.7986 48.9361 12.7596 48.8922C12.7205 48.8565 12.6696 48.8366 12.6166 48.8365C12.5962 48.8335 12.5753 48.8347 12.5554 48.8401C12.5355 48.8455 12.5169 48.855 12.5007 48.8679C12.4881 48.8793 12.478 48.8932 12.4711 48.9087C12.4641 48.9242 12.4606 48.941 12.4607 48.958C12.4605 48.9714 12.4631 48.9846 12.4683 48.9969C12.4734 49.0092 12.4811 49.0203 12.4907 49.0296C12.5331 49.061 12.582 49.0825 12.6338 49.0925C12.7774 49.1245 12.917 49.1725 13.05 49.2355C13.1251 49.2729 13.1876 49.3313 13.2298 49.4038C13.272 49.4762 13.292 49.5595 13.2874 49.6432C13.2839 49.7365 13.2525 49.8267 13.1973 49.9021C13.1395 49.9814 13.06 50.0425 12.9685 50.078C12.8531 50.1193 12.7298 50.1335 12.608 50.1195C12.4169 50.1194 12.2323 50.0497 12.0888 49.9235C12.0483 49.8822 12.0169 49.8329 11.9966 49.7787C11.9764 49.7245 11.9679 49.6666 11.9715 49.6088Z" fill="#640C24"/>
<path d="M14.4789 49.5201L14.8651 49.6632C14.8423 49.7754 14.7981 49.8822 14.735 49.9778C14.6836 50.0562 14.6126 50.1198 14.529 50.1623C14.4312 50.206 14.324 50.2247 14.2172 50.2167C14.0823 50.2171 13.9491 50.1863 13.8281 50.1266C13.7176 50.0616 13.6274 49.9669 13.5678 49.8534C13.4949 49.7045 13.4605 49.5398 13.4677 49.3742C13.457 49.274 13.4664 49.1727 13.4953 49.0761C13.5243 48.9796 13.5723 48.8898 13.6365 48.8121C13.7048 48.7441 13.7872 48.6919 13.8779 48.6593C13.9686 48.6267 14.0654 48.6144 14.1614 48.6233C14.3143 48.622 14.4641 48.6674 14.5905 48.7535C14.7021 48.8363 14.7895 48.9474 14.8437 49.0753C14.6878 49.1053 14.6091 49.1211 14.4546 49.154C14.4433 49.1211 14.4269 49.0902 14.406 49.0624C14.3789 49.0313 14.3458 49.006 14.3087 48.988C14.2701 48.9703 14.2282 48.9606 14.1857 48.9594C14.1417 48.956 14.0976 48.9647 14.0583 48.9846C14.0189 49.0045 13.9858 49.0349 13.9626 49.0724C13.9216 49.1619 13.9043 49.2604 13.9125 49.3585C13.9023 49.4854 13.9276 49.6127 13.9855 49.7261C14.0088 49.7583 14.0396 49.7843 14.0752 49.802C14.1109 49.8197 14.1502 49.8285 14.19 49.8276C14.2261 49.8309 14.2625 49.8254 14.2961 49.8117C14.3297 49.7981 14.3595 49.7765 14.3831 49.749C14.4326 49.6813 14.4654 49.6029 14.4789 49.5201V49.5201Z" fill="#640C24"/>
<path d="M15.0581 48.6792L15.513 48.6921C15.513 48.9109 15.523 48.9781 15.5301 49.1569H16.0193C16.0193 48.9767 16.0107 48.9195 16.0107 48.7021H16.4641C16.4641 49.3286 16.4455 49.5717 16.4398 50.2325C16.261 50.2325 16.1709 50.2325 15.9921 50.2254C15.9921 49.9579 16.0093 49.7963 16.0179 49.5245H15.5315C15.523 49.7992 15.5115 49.9536 15.5072 50.2154L15.0667 50.2011C15.0781 49.5517 15.0667 49.3085 15.0581 48.6792Z" fill="#640C24"/>
<path d="M16.7091 49.3743C16.6988 49.2824 16.7111 49.1893 16.7447 49.1031C16.7783 49.0169 16.8324 48.9402 16.9022 48.8794C17.058 48.7531 17.2522 48.6835 17.4528 48.6819C17.6534 48.6804 17.8486 48.747 18.0064 48.8709C18.0752 48.9331 18.1282 49.0108 18.1608 49.0977C18.1934 49.1845 18.2047 49.2779 18.1938 49.37C18.1978 49.5335 18.1651 49.6958 18.0979 49.8449C18.0426 49.9656 17.9543 50.0682 17.8433 50.141C17.7214 50.2093 17.5851 50.2479 17.4455 50.2539C17.3059 50.2598 17.1668 50.2329 17.0395 50.1753C16.9261 50.1082 16.8384 50.0049 16.7906 49.8821C16.7303 49.7199 16.7026 49.5473 16.7091 49.3743V49.3743ZM17.1539 49.3743C17.1427 49.5027 17.1665 49.6317 17.2226 49.7477C17.2451 49.7838 17.2768 49.8133 17.3145 49.8332C17.3522 49.8531 17.3945 49.8625 17.4371 49.8607C17.4813 49.8615 17.5249 49.8515 17.5643 49.8315C17.6037 49.8116 17.6376 49.7823 17.6631 49.7462C17.7305 49.6282 17.7614 49.4928 17.7518 49.3572C17.7593 49.3065 17.756 49.2549 17.7422 49.2056C17.7284 49.1563 17.7044 49.1105 17.6717 49.0711C17.6421 49.0434 17.6072 49.0221 17.5691 49.0083C17.531 48.9945 17.4904 48.9886 17.45 48.991C17.4104 48.9887 17.3708 48.9946 17.3336 49.0084C17.2964 49.0221 17.2625 49.0435 17.234 49.0711C17.1797 49.1326 17.151 49.2113 17.151 49.3772L17.1539 49.3743Z" fill="#640C24"/>
<path d="M18.3768 49.3843C18.3686 49.288 18.3827 49.1912 18.4182 49.1014C18.4537 49.0115 18.5095 48.9311 18.5813 48.8665C18.7315 48.7282 18.9278 48.6507 19.132 48.6491C19.2319 48.6401 19.3326 48.6517 19.4278 48.6832C19.523 48.7147 19.6107 48.7654 19.6855 48.8322C19.7524 48.9043 19.8033 48.9898 19.8349 49.0829C19.8664 49.1761 19.8779 49.2749 19.8686 49.3728C19.8743 49.529 19.8465 49.6846 19.7871 49.8291C19.7334 49.9455 19.6481 50.0446 19.5411 50.1152C19.4199 50.1911 19.2792 50.2299 19.1363 50.2267C18.9947 50.2333 18.8538 50.2032 18.7272 50.1395C18.6133 50.0775 18.5222 49.9808 18.4669 49.8634C18.3995 49.7131 18.3686 49.5489 18.3768 49.3843V49.3843ZM18.8202 49.3843C18.81 49.5077 18.8385 49.6312 18.9017 49.7376C18.9268 49.7726 18.9602 49.8009 18.9989 49.8199C19.0376 49.8389 19.0804 49.8479 19.1234 49.8463C19.1665 49.8476 19.2092 49.8385 19.2481 49.8198C19.2869 49.8012 19.3207 49.7734 19.3466 49.739C19.4084 49.6238 19.4353 49.4931 19.4238 49.3628C19.436 49.257 19.4085 49.1505 19.3466 49.0639C19.3183 49.0345 19.2839 49.0118 19.2458 48.9975C19.2077 48.9831 19.1669 48.9775 19.1263 48.9809C19.0856 48.98 19.0451 48.9875 19.0074 49.003C18.9698 49.0185 18.9357 49.0417 18.9074 49.071C18.8727 49.1156 18.8471 49.1666 18.8321 49.2211C18.8172 49.2756 18.8131 49.3325 18.8202 49.3886V49.3843Z" fill="#640C24"/>
<path d="M20.1247 48.6377C20.3021 48.6291 20.3922 48.6248 20.5695 48.6134C20.5695 49.0911 20.5524 49.3357 20.5695 49.7663L21.2604 49.7462C21.2604 49.8764 21.2604 49.9365 21.2604 50.0924C20.817 50.1138 20.5853 50.1339 20.1247 50.1596C20.1147 49.5045 20.1204 49.2671 20.1247 48.6377Z" fill="#640C24"/>
</svg>
